<svg xmlns="http://www.w3.org/2000/svg" viewBox="0 0 900 620" role="img" aria-labelledby="title desc">
  <title id="title">Circuito basico con Arduino, protoboard y LED</title>
  <desc id="desc">Ilustracion de una placa Arduino conectada a una protoboard con un LED y resistencia.</desc>
  <rect width="900" height="620" fill="#f8fafc"/>
  <rect x="70" y="95" width="330" height="430" rx="18" fill="#0f766e"/>
  <rect x="105" y="135" width="260" height="340" rx="10" fill="#115e59"/>
  <circle cx="138" cy="168" r="14" fill="#d9f99d"/>
  <circle cx="332" cy="168" r="14" fill="#d9f99d"/>
  <rect x="135" y="420" width="190" height="30" rx="5" fill="#e2e8f0"/>
  <text x="235" y="318" text-anchor="middle" fill="#f8fafc" font-family="Arial, sans-serif" font-size="48" font-weight="700">UNO</text>
  <rect x="470" y="135" width="330" height="350" rx="16" fill="#e2e8f0" stroke="#94a3b8" stroke-width="4"/>
  <g stroke="#cbd5e1" stroke-width="2">
    <path d="M505 180H765"/><path d="M505 220H765"/><path d="M505 260H765"/><path d="M505 300H765"/><path d="M505 340H765"/><path d="M505 380H765"/><path d="M505 420H765"/>
    <path d="M520 160V460"/><path d="M560 160V460"/><path d="M600 160V460"/><path d="M640 160V460"/><path d="M680 160V460"/><path d="M720 160V460"/><path d="M760 160V460"/>
  </g>
  <path d="M330 250C430 250 430 205 535 205" fill="none" stroke="#ef4444" stroke-width="12" stroke-linecap="round"/>
  <path d="M330 365C430 365 430 405 535 405" fill="none" stroke="#111827" stroke-width="12" stroke-linecap="round"/>
  <circle cx="635" cy="255" r="42" fill="#facc15" stroke="#ca8a04" stroke-width="8"/>
  <path d="M607 285H665" stroke="#ca8a04" stroke-width="8" stroke-linecap="round"/>
  <path d="M614 225L655 285" stroke="#fef3c7" stroke-width="8" stroke-linecap="round"/>
  <rect x="578" y="375" width="130" height="28" rx="14" fill="#f59e0b"/>
  <path d="M592 389h102" stroke="#7c2d12" stroke-width="5" stroke-dasharray="16 10"/>
  <text x="450" y="565" text-anchor="middle" fill="#0f172a" font-family="Arial, sans-serif" font-size="34" font-weight="700">LED + resistencia + salida digital</text>
</svg>
